# xmcd
#
# Track frame offsets: 
#        150
#        13482
#        34077
#        47182
#        64487
#        78150
#        95182
#        111280
#        123682
#        135667
#        147680
#        172830
#        184040
#        206460
#        217085
#        235072
#        256172
#
# Disc length: 3811 seconds
#
# Revision: 5
# Processed by: cddbd v1.5.2PL0 Copyright (c) Steve Scherf et al.
# Submitted via: ExactAudioCopy v1.3
#
DISCID=050ee111
DTITLE=Various Artist - Raw Blues - Everyday I Have The Blues
DYEAR=1999
DGENRE=Blues
TTITLE0=Memphis Slim - Everyday I Have The Blues
TTITLE1=Pinetop Perkins - Got My Mojo Working
TTITLE2=Elmore James - Dust My Broom
TTITLE3=John Lee Hooker - Blues Before Sunrise
TTITLE4=Muddy Waters - Hoochie, Coochie Man
TTITLE5=Bo Diddley - Mona (I Need You Baby)
TTITLE6=Little Walter and Otis Rush - Walter's Blues
TTITLE7=Jimmy Reed - Honest I Do
TTITLE8=Lightnin' Hopkins - Don't Think Cause You're Pretty
TTITLE9=Ray Charles - CC. Rider
TTITLE10=Howlin Wolf - I Didn't Mean To Hurt Your Feelings
TTITLE11=Canned Heat - Spoonful
TTITLE12=S. Terry and B. McGhee - Drinking In The Blues
TTITLE13=Robert Johnson - Love In Vain
TTITLE14=James Cotton - V8 Ford Blues
TTITLE15=Mike Bloomfield - Woman Lovin' Each Other
TTITLE16=Rufus Thomas - Today
EXTD=
EXTT0=
EXTT1=
EXTT2=
EXTT3=
EXTT4=
EXTT5=
EXTT6=
EXTT7=
EXTT8=
EXTT9=
EXTT10=
EXTT11=
EXTT12=
EXTT13=
EXTT14=
EXTT15=
EXTT16=
PLAYORDER=
